# xmcd
#
# Track frame offsets:
#	182
#	9020
#	30935
#	50530
#	71012
#	88897
#	111875
#	136555
#	153985
#	171160
#	184147
#	202480
#	214797
#	219595
#	241130
#	261900
#
# Disc length: 3780 seconds
#
# Revision: 4
# Processed by: cddbd v1.5.1PL2 Copyright (c) Steve Scherf et al.
# Submitted via: audiograbber 1.83.01
#
DISCID=de0ec210
DTITLE=Dr. Dre - The Chronic
DYEAR=1992
DGENRE=Rap
TTITLE0=The Chronic
TTITLE1=Wit Dre Day
TTITLE2=Let Me Ride
TTITLE3=The Day The Niggaz Took Over
TTITLE4=Nuthin But a G Thang
TTITLE5=Deez Nuuts
TTITLE6=Lil Ghetto Boy
TTITLE7=A Nigga Witta Gun
TTITLE8=Rat-Tat-Tat-Tat
TTITLE9=The $20 Sack Pyramid
TTITLE10=Lyrical Gangbang
TTITLE11=High Powered
TTITLE12=The Doctor's Office
TTITLE13=Stranded On Death Row
TTITLE14=The Roach
TTITLE15=The Chronic Outro
EXTD=
EXTT0=
EXTT1=
EXTT2=
EXTT3=
EXTT4=
EXTT5=
EXTT6=
EXTT7=
EXTT8=
EXTT9=
EXTT10=
EXTT11=
EXTT12=
EXTT13=
EXTT14=
EXTT15=
PLAYORDER=
